<?xml version="1.0" encoding="utf-8"?>
<!-- Generator: Adobe Illustrator 24.1.3, SVG Export Plug-In . SVG Version: 6.00 Build 0)  -->
<svg version="1.1" id="Capa_1" xmlns="http://www.w3.org/2000/svg" xmlns:xlink="http://www.w3.org/1999/xlink" x="0px" y="0px"
	 viewBox="0 0 1024 1024" style="enable-background:new 0 0 1024 1024;" xml:space="preserve">
<style type="text/css">
	.st0{fill:#2970FF;}
	.st1{fill:#2DD8A3;}
	.st2{fill:none;stroke:url(#SVGID_1_);stroke-width:85;stroke-miterlimit:10;}
</style>
<g>
	<g>
		<path class="st0" d="M344.7,392.5L225.2,273h129.1l191.2,191.2H416.4c-25.5,0-49.5,9.9-67.6,28c-18.1,18.1-28,42.1-28,67.6
			c0,25.5,9.9,49.5,28,67.6c18.1,18.1,42.1,28,67.6,28h47.8l95.6,95.6H416.4c-105.6,0-191.2-85.6-191.2-191.2
			C225.2,482.3,263.4,419.7,344.7,392.5z"/>
		<g>
			<g>
				<g>
					<path class="st1" d="M679.3,631.5L798.8,751H669.8L478.5,559.8h129.1c25.5,0,49.5-9.9,67.6-28c18.1-18.1,28-42.1,28-67.6
						c0-25.5-9.9-49.5-28-67.6c-18.1-18.1-42.1-28-67.6-28h-47.8L464.2,273h143.4c105.6,0,191.2,85.6,191.2,191.2
						C798.8,541.7,760.6,604.3,679.3,631.5z"/>
				</g>
			</g>
		</g>
	</g>
	<linearGradient id="SVGID_1_" gradientUnits="userSpaceOnUse" x1="34.766" y1="512" x2="989.2341" y2="512">
		<stop  offset="0.3464" style="stop-color:#2970FF"/>
		<stop  offset="0.6797" style="stop-color:#2ED6A1"/>
	</linearGradient>
	<circle class="st2" cx="512" cy="512" r="434.7"/>
</g>
</svg>
