<?xml version="1.0" encoding="utf-8"?>
<!-- Generator: Adobe Illustrator 24.1.3, SVG Export Plug-In . SVG Version: 6.00 Build 0)  -->
<svg version="1.1" id="Layer_1" xmlns="http://www.w3.org/2000/svg" xmlns:xlink="http://www.w3.org/1999/xlink" x="0px" y="0px"
	 viewBox="0 0 793.3 340.8" style="enable-background:new 0 0 793.3 340.8;" xml:space="preserve">
<style type="text/css">
	.st0{opacity:0.5;fill:#F3F5F6;enable-background:new    ;}
	.st1{fill:#F3F5F6;}
</style>
<path class="st0" d="M34,340.8H2c-1.1,0-2-0.9-2-2V2c0-1.1,0.9-2,2-2h32c1.1,0,2,0.9,2,2v7.7c0,1.1-0.9,2-2,2H12.9v317.4H34
	c1.1,0,2,0.9,2,2v7.7C36,339.9,35.1,340.8,34,340.8L34,340.8z"/>
<path class="st0" d="M10.9,9.7v321.4H34v7.7H2V2h32v7.7H10.9z"/>
<path class="st0" d="M252.4,233.7h-33c-1.1,0-2-0.9-2-2v-68.1c0-3.9-0.2-7.7-0.5-11.2c-0.3-3.3-1.1-6.2-2.3-8.5
	c-1.2-2.3-3-4.1-5.4-5.5c-2.4-1.4-5.8-2.1-10-2.1c-4.2,0-7.7,0.8-10.2,2.4c-2.6,1.6-4.6,3.7-6.1,6.3c-1.5,2.6-2.5,5.7-3,9.1
	c-0.5,3.5-0.8,7.1-0.8,10.7v66.9c0,1.1-0.9,2-2,2h-33c-1.1,0-2-0.9-2-2v-67.4c0-3.4-0.1-7-0.2-10.5c-0.1-3.3-0.8-6.3-1.8-9
	c-1-2.6-2.7-4.6-5-6.2c-2.4-1.6-6-2.3-10.9-2.3c-1.4,0-3.3,0.3-5.6,1c-2.3,0.6-4.5,1.8-6.7,3.6c-2.2,1.7-4,4.3-5.6,7.7
	c-1.6,3.4-2.4,7.9-2.4,13.4v69.7c0,1.1-0.9,2-2,2h-33c-1.1,0-2-0.9-2-2V111.6c0-1.1,0.9-2,2-2H100c1.1,0,2,0.9,2,2v11
	c3.8-4.5,8.2-8.2,13.2-10.9c6.4-3.6,13.8-5.4,22-5.4c7.8,0,15.1,1.5,21.6,4.6c5.8,2.7,10.4,7.3,13.8,13.5c3.4-4.4,7.8-8.3,13.1-11.8
	c6.4-4.2,14.1-6.4,22.8-6.4c6.5,0,12.6,0.8,18.2,2.4c5.7,1.6,10.6,4.3,14.7,7.9c4.1,3.6,7.3,8.4,9.6,14.1c2.3,5.7,3.4,12.6,3.4,20.6
	v80.4C254.4,232.8,253.5,233.7,252.4,233.7L252.4,233.7z"/>
<path class="st0" d="M100,111.6v16.3h0.5c4.3-6.2,9.6-11,15.7-14.4c6.1-3.4,13.1-5.1,21-5.1c7.6,0,14.5,1.5,20.8,4.4
	c6.3,2.9,11,8.1,14.3,15.6c3.6-5.3,8.4-9.9,14.5-13.9c6.1-4,13.4-6,21.7-6c6.4,0,12.2,0.8,17.7,2.3c5.4,1.5,10.1,4,13.9,7.4
	c3.9,3.4,6.9,7.9,9.1,13.4c2.2,5.5,3.3,12.1,3.3,19.9v80.4h-33v-68.1c0-4-0.2-7.8-0.5-11.4c-0.3-3.6-1.2-6.7-2.6-9.3
	c-1.4-2.6-3.4-4.7-6.2-6.3c-2.7-1.5-6.4-2.3-11-2.3s-8.4,0.9-11.3,2.7c-2.9,1.8-5.1,4.1-6.7,7c-1.6,2.9-2.7,6.1-3.3,9.8
	c-0.5,3.6-0.8,7.3-0.8,11v66.9h-33v-67.4c0-3.6-0.1-7.1-0.2-10.6c-0.2-3.5-0.8-6.7-2-9.6c-1.2-2.9-3.1-5.3-5.8-7.1
	c-2.7-1.8-6.7-2.7-12-2.7c-1.6,0-3.6,0.3-6.2,1c-2.6,0.7-5,2-7.4,3.9c-2.4,1.9-4.5,4.7-6.2,8.4c-1.7,3.6-2.6,8.4-2.6,14.3v69.7h-33
	V111.6H100z"/>
<path class="st0" d="M304.9,236.7c-5.9,0-11.5-0.7-16.6-2.2c-5.2-1.5-9.8-3.8-13.7-6.9c-3.9-3.1-7.1-7.1-9.3-11.9
	c-2.2-4.7-3.3-10.4-3.3-16.9c0-7.1,1.3-13.1,3.8-17.8c2.5-4.7,5.9-8.5,9.9-11.3c4-2.8,8.6-4.8,13.6-6.2c4.9-1.3,9.9-2.4,15-3.2
	c5-0.8,9.9-1.4,14.8-1.9c4.7-0.5,8.9-1.1,12.5-2c3.4-0.9,6.1-2.1,8-3.7c1.7-1.4,2.4-3.4,2.3-6.2c0-3.3-0.5-5.8-1.5-7.6
	c-1-1.8-2.3-3.1-3.9-4.1c-1.7-1-3.7-1.7-6-2.1c-2.5-0.4-5.1-0.6-7.9-0.6c-6,0-10.8,1.3-14.1,3.8c-3.2,2.4-5.2,6.6-5.7,12.5
	c-0.1,1-1,1.8-2,1.8h-33c-0.6,0-1.1-0.2-1.5-0.6c-0.4-0.4-0.6-0.9-0.5-1.5c0.5-8.1,2.5-14.9,6.1-20.3c3.5-5.3,8.1-9.7,13.7-12.9
	c5.4-3.2,11.6-5.5,18.4-6.9c6.7-1.3,13.5-2,20.3-2c6.1,0,12.4,0.4,18.6,1.3c6.4,0.9,12.3,2.6,17.6,5.2c5.4,2.6,9.8,6.3,13.3,11
	c3.5,4.7,5.3,11,5.3,18.7V205c0,5.3,0.3,10.5,0.9,15.3c0.6,4.6,1.6,8.1,3,10.3c0.4,0.6,0.4,1.4,0.1,2c-0.4,0.6-1,1-1.8,1h-33.5
	c-0.9,0-1.6-0.6-1.9-1.4c-0.6-1.9-1.2-3.9-1.6-5.9c-0.1-0.7-0.3-1.4-0.4-2.1c-4.8,4.2-10.3,7.2-16.5,9.1
	C320,235.6,312.5,236.7,304.9,236.7L304.9,236.7z M341.9,176.7c-0.8,0.4-1.7,0.8-2.6,1.1c-2.2,0.7-4.5,1.3-7,1.8
	c-2.4,0.5-5,0.9-7.7,1.2c-2.6,0.3-5.3,0.7-7.8,1.1c-2.3,0.4-4.7,1-7.1,1.8c-2.2,0.7-4.1,1.7-5.7,2.8c-1.5,1.1-2.8,2.6-3.7,4.3
	c-0.9,1.7-1.4,4-1.4,6.7c0,2.6,0.5,4.8,1.4,6.5c0.9,1.7,2.1,3,3.7,4c1.6,1,3.6,1.8,5.8,2.2c2.3,0.4,4.8,0.7,7.3,0.7
	c6.1,0,10.8-1,14.1-3c3.2-2,5.7-4.3,7.2-7.1c1.6-2.8,2.5-5.6,2.9-8.4c0.4-3,0.6-5.4,0.6-7.2V176.7L341.9,176.7z"/>
<path class="st0" d="M273.5,129.3c3.4-5.1,7.7-9.2,13-12.3c5.3-3.1,11.2-5.3,17.8-6.6c6.6-1.3,13.2-2,19.9-2c6,0,12.2,0.4,18.4,1.3
	c6.2,0.9,11.9,2.5,17,5c5.1,2.5,9.3,5.9,12.5,10.3c3.3,4.4,4.9,10.3,4.9,17.5V205c0,5.4,0.3,10.6,0.9,15.6c0.6,5,1.7,8.7,3.3,11.2
	h-33.5c-0.6-1.9-1.1-3.8-1.5-5.7c-0.4-1.9-0.7-3.9-0.8-5.9c-5.3,5.4-11.5,9.2-18.6,11.4c-7.1,2.2-14.4,3.3-21.8,3.3
	c-5.7,0-11.1-0.7-16-2.1c-5-1.4-9.3-3.6-13-6.5c-3.7-2.9-6.6-6.7-8.7-11.1s-3.1-9.8-3.1-16c0-6.8,1.2-12.4,3.6-16.8
	c2.4-4.4,5.5-7.9,9.3-10.6c3.8-2.6,8.1-4.6,13-5.9c4.9-1.3,9.8-2.4,14.8-3.1c5-0.8,9.8-1.4,14.6-1.9c4.8-0.5,9.1-1.2,12.8-2.1
	c3.7-0.9,6.7-2.3,8.8-4.1c2.2-1.8,3.2-4.4,3-7.8c0-3.6-0.6-6.4-1.7-8.5c-1.2-2.1-2.7-3.7-4.6-4.9c-1.9-1.2-4.2-1.9-6.7-2.3
	c-2.6-0.4-5.3-0.6-8.2-0.6c-6.5,0-11.6,1.4-15.3,4.2c-3.7,2.8-5.9,7.4-6.5,13.9h-33C268.2,140.8,270.1,134.4,273.5,129.3z
	 M338.7,175.8c-2.1,0.7-4.3,1.3-6.7,1.7c-2.4,0.5-4.9,0.9-7.6,1.2c-2.6,0.3-5.3,0.7-7.9,1.2c-2.5,0.5-4.9,1.1-7.3,1.9
	c-2.4,0.8-4.5,1.8-6.3,3.1c-1.8,1.3-3.2,3-4.3,5c-1.1,2-1.6,4.6-1.6,7.7c0,2.9,0.5,5.4,1.6,7.4c1.1,2,2.6,3.6,4.4,4.8s4,2,6.5,2.4
	c2.5,0.5,5,0.7,7.7,0.7c6.5,0,11.5-1.1,15.1-3.3c3.6-2.2,6.2-4.8,7.9-7.8c1.7-3,2.7-6.1,3.1-9.2c0.4-3.1,0.6-5.6,0.6-7.4v-12.3
	C342.5,174.2,340.8,175.1,338.7,175.8z"/>
<path class="st0" d="M444.5,234.9c-5.2,0-10.2-0.4-14.8-1.1c-4.8-0.7-9.1-2.2-12.8-4.3c-3.8-2.2-6.8-5.3-9-9.4
	c-2.2-4-3.3-9.2-3.3-15.6v-68.9h-18c-1.1,0-2-0.9-2-2v-22.1c0-1.1,0.9-2,2-2h18v-34c0-1.1,0.9-2,2-2h33c1.1,0,2,0.9,2,2v34h22.2
	c1.1,0,2,0.9,2,2v22.1c0,1.1-0.9,2-2,2h-22.2v57.5c0,6.2,1.2,8.7,2.2,9.7c1,1,3.5,2.2,9.7,2.2c1.8,0,3.5-0.1,5.2-0.2
	c1.6-0.1,3.2-0.4,4.7-0.7c0.1,0,0.3,0,0.4,0c0.5,0,0.9,0.2,1.3,0.5c0.5,0.4,0.7,0.9,0.7,1.5v25.6c0,1-0.7,1.8-1.7,2
	c-2.8,0.5-6,0.8-9.5,1C451,234.8,447.7,234.9,444.5,234.9L444.5,234.9z"/>
<path class="st0" d="M463.8,111.6v22.1h-24.2v59.5c0,5.6,0.9,9.3,2.8,11.1c1.9,1.9,5.6,2.8,11.2,2.8c1.9,0,3.6-0.1,5.3-0.2
	c1.7-0.2,3.3-0.4,4.9-0.7v25.6c-2.8,0.5-5.9,0.8-9.3,0.9c-3.4,0.1-6.7,0.2-10,0.2c-5.1,0-10-0.4-14.5-1c-4.6-0.7-8.6-2-12.1-4.1
	c-3.5-2-6.2-4.9-8.2-8.6c-2-3.7-3-8.6-3-14.6v-70.9h-20v-22.1h20v-36h33v36H463.8z"/>
<path class="st0" d="M512.6,233.7h-33c-1.1,0-2-0.9-2-2V111.6c0-1.1,0.9-2,2-2H511c1.1,0,2,0.9,2,2v15.1c1-1.5,2-3,3.2-4.4
	c2.8-3.3,5.9-6.2,9.5-8.5c3.5-2.3,7.4-4.2,11.4-5.5c4.1-1.3,8.3-2,12.7-2c2.3,0,5,0.4,7.8,1.2c0.9,0.3,1.4,1,1.4,1.9v30.7
	c0,0.6-0.3,1.2-0.7,1.5c-0.4,0.3-0.8,0.5-1.3,0.5c-0.1,0-0.3,0-0.4,0c-1.5-0.3-3.3-0.6-5.4-0.8c-2.1-0.2-4.1-0.3-6.1-0.3
	c-5.7,0-10.6,0.9-14.5,2.8c-3.9,1.9-7,4.4-9.4,7.6c-2.4,3.3-4.1,7.1-5.1,11.5c-1,4.5-1.6,9.4-1.6,14.6v54.1
	C514.6,232.8,513.7,233.7,512.6,233.7L512.6,233.7z"/>
<path class="st0" d="M511,111.6v22.3h0.5c1.5-3.7,3.6-7.2,6.3-10.3c2.6-3.2,5.7-5.9,9.1-8.1c3.4-2.2,7-4,10.9-5.2
	c3.9-1.2,7.9-1.9,12.1-1.9c2.2,0,4.6,0.4,7.2,1.2v30.7c-1.6-0.3-3.4-0.6-5.6-0.8c-2.2-0.2-4.3-0.4-6.3-0.4c-6,0-11.2,1-15.3,3
	c-4.2,2-7.5,4.8-10.1,8.2c-2.6,3.5-4.4,7.6-5.5,12.2c-1.1,4.6-1.6,9.7-1.6,15.1v54.1h-33V111.6H511z"/>
<path class="st0" d="M603.9,233.7h-33c-1.1,0-2-0.9-2-2V111.6c0-1.1,0.9-2,2-2h33c1.1,0,2,0.9,2,2v120.1
	C605.9,232.8,605,233.7,603.9,233.7L603.9,233.7z M603.9,95h-33c-1.1,0-2-0.9-2-2V65.8c0-1.1,0.9-2,2-2h33c1.1,0,2,0.9,2,2V93
	C605.9,94.1,605,95,603.9,95L603.9,95z"/>
<path class="st0" d="M570.9,93V65.8h33V93C603.9,93,570.9,93,570.9,93z M603.9,111.6v120.1h-33V111.6H603.9z"/>
<path class="st0" d="M742.2,233.7h-37.6c-0.7,0-1.3-0.3-1.7-0.9l-23.4-35.4L656,232.8c-0.4,0.6-1,0.9-1.7,0.9h-36.9
	c-0.7,0-1.4-0.4-1.8-1.1c-0.3-0.7-0.3-1.4,0.1-2.1l42.4-62.1l-38.7-55.8c-0.4-0.6-0.5-1.4-0.1-2.1c0.3-0.7,1-1.1,1.8-1.1h37.6
	c0.7,0,1.3,0.3,1.7,0.9l19.5,28.9l19.3-28.9c0.4-0.6,1-0.9,1.7-0.9h36.5c0.7,0,1.4,0.4,1.8,1.1c0.3,0.7,0.3,1.5-0.1,2.1l-38.7,55.1
	l43.6,62.7c0.4,0.6,0.5,1.4,0.1,2.1C743.6,233.3,742.9,233.7,742.2,233.7L742.2,233.7z"/>
<path class="st0" d="M621.1,111.6h37.6l21.1,31.4l20.9-31.4h36.5l-39.5,56.2l44.4,63.9h-37.6l-25.1-37.9l-25.1,37.9h-36.9l43.2-63.2
	L621.1,111.6z"/>
<path class="st0" d="M791.3,340.8h-32c-1.1,0-2-0.9-2-2v-7.7c0-1.1,0.9-2,2-2h21.1V11.7h-21.1c-1.1,0-2-0.9-2-2V2c0-1.1,0.9-2,2-2
	h32c1.1,0,2,0.9,2,2v336.8C793.3,339.9,792.4,340.8,791.3,340.8L791.3,340.8z"/>
<path class="st0" d="M782.4,331.1V9.7h-23.1V2h32v336.8h-32v-7.7L782.4,331.1L782.4,331.1z"/>
<path class="st1" d="M10.9,9.7v321.4H34v7.7H2V2h32v7.7H10.9z"/>
<path class="st1" d="M100,111.6v16.3h0.5c4.3-6.2,9.6-11,15.7-14.4c6.1-3.4,13.1-5.1,21-5.1c7.6,0,14.5,1.5,20.8,4.4
	c6.3,2.9,11,8.1,14.3,15.6c3.6-5.3,8.4-9.9,14.5-13.9c6.1-4,13.4-6,21.7-6c6.4,0,12.2,0.8,17.7,2.3c5.4,1.5,10.1,4,13.9,7.4
	c3.9,3.4,6.9,7.9,9.1,13.4c2.2,5.5,3.3,12.1,3.3,19.9v80.4h-33v-68.1c0-4-0.2-7.8-0.5-11.4c-0.3-3.6-1.2-6.7-2.6-9.3
	c-1.4-2.6-3.4-4.7-6.2-6.3c-2.7-1.5-6.4-2.3-11-2.3s-8.4,0.9-11.3,2.7c-2.9,1.8-5.1,4.1-6.7,7c-1.6,2.9-2.7,6.1-3.3,9.8
	c-0.5,3.6-0.8,7.3-0.8,11v66.9h-33v-67.4c0-3.6-0.1-7.1-0.2-10.6c-0.2-3.5-0.8-6.7-2-9.6c-1.2-2.9-3.1-5.3-5.8-7.1
	c-2.7-1.8-6.7-2.7-12-2.7c-1.6,0-3.6,0.3-6.2,1c-2.6,0.7-5,2-7.4,3.9c-2.4,1.9-4.5,4.7-6.2,8.4c-1.7,3.6-2.6,8.4-2.6,14.3v69.7h-33
	V111.6H100z"/>
<path class="st1" d="M273.5,129.3c3.4-5.1,7.7-9.2,13-12.3c5.3-3.1,11.2-5.3,17.8-6.6c6.6-1.3,13.2-2,19.9-2c6,0,12.2,0.4,18.4,1.3
	c6.2,0.9,11.9,2.5,17,5c5.1,2.5,9.3,5.9,12.5,10.3c3.3,4.4,4.9,10.3,4.9,17.5V205c0,5.4,0.3,10.6,0.9,15.6c0.6,5,1.7,8.7,3.3,11.2
	h-33.5c-0.6-1.9-1.1-3.8-1.5-5.7c-0.4-1.9-0.7-3.9-0.8-5.9c-5.3,5.4-11.5,9.2-18.6,11.4c-7.1,2.2-14.4,3.3-21.8,3.3
	c-5.7,0-11.1-0.7-16-2.1c-5-1.4-9.3-3.6-13-6.5c-3.7-2.9-6.6-6.7-8.7-11.1s-3.1-9.8-3.1-16c0-6.8,1.2-12.4,3.6-16.8
	c2.4-4.4,5.5-7.9,9.3-10.6c3.8-2.6,8.1-4.6,13-5.9c4.9-1.3,9.8-2.4,14.8-3.1c5-0.8,9.8-1.4,14.6-1.9c4.8-0.5,9.1-1.2,12.8-2.1
	c3.7-0.9,6.7-2.3,8.8-4.1c2.2-1.8,3.2-4.4,3-7.8c0-3.6-0.6-6.4-1.7-8.5c-1.2-2.1-2.7-3.7-4.6-4.9c-1.9-1.2-4.2-1.9-6.7-2.3
	c-2.6-0.4-5.3-0.6-8.2-0.6c-6.5,0-11.6,1.4-15.3,4.2c-3.7,2.8-5.9,7.4-6.5,13.9h-33C268.2,140.8,270.1,134.4,273.5,129.3z
	 M338.7,175.8c-2.1,0.7-4.3,1.3-6.7,1.7c-2.4,0.5-4.9,0.9-7.6,1.2c-2.6,0.3-5.3,0.7-7.9,1.2c-2.5,0.5-4.9,1.1-7.3,1.9
	c-2.4,0.8-4.5,1.8-6.3,3.1c-1.8,1.3-3.2,3-4.3,5c-1.1,2-1.6,4.6-1.6,7.7c0,2.9,0.5,5.4,1.6,7.4c1.1,2,2.6,3.6,4.4,4.8s4,2,6.5,2.4
	c2.5,0.5,5,0.7,7.7,0.7c6.5,0,11.5-1.1,15.1-3.3c3.6-2.2,6.2-4.8,7.9-7.8c1.7-3,2.7-6.1,3.1-9.2c0.4-3.1,0.6-5.6,0.6-7.4v-12.3
	C342.5,174.2,340.8,175.1,338.7,175.8z"/>
<path class="st1" d="M463.8,111.6v22.1h-24.2v59.5c0,5.6,0.9,9.3,2.8,11.1c1.9,1.9,5.6,2.8,11.2,2.8c1.9,0,3.6-0.1,5.3-0.2
	c1.7-0.2,3.3-0.4,4.9-0.7v25.6c-2.8,0.5-5.9,0.8-9.3,0.9c-3.4,0.1-6.7,0.2-10,0.2c-5.1,0-10-0.4-14.5-1c-4.6-0.7-8.6-2-12.1-4.1
	c-3.5-2-6.2-4.9-8.2-8.6c-2-3.7-3-8.6-3-14.6v-70.9h-20v-22.1h20v-36h33v36H463.8z"/>
<path class="st1" d="M511,111.6v22.3h0.5c1.5-3.7,3.6-7.2,6.3-10.3c2.6-3.2,5.7-5.9,9.1-8.1c3.4-2.2,7-4,10.9-5.2
	c3.9-1.2,7.9-1.9,12.1-1.9c2.2,0,4.6,0.4,7.2,1.2v30.7c-1.6-0.3-3.4-0.6-5.6-0.8c-2.2-0.2-4.3-0.4-6.3-0.4c-6,0-11.2,1-15.3,3
	c-4.2,2-7.5,4.8-10.1,8.2c-2.6,3.5-4.4,7.6-5.5,12.2c-1.1,4.6-1.6,9.7-1.6,15.1v54.1h-33V111.6H511z"/>
<path class="st1" d="M570.9,93V65.8h33V93C603.9,93,570.9,93,570.9,93z M603.9,111.6v120.1h-33V111.6H603.9z"/>
<path class="st1" d="M621.1,111.6h37.6l21.1,31.4l20.9-31.4h36.5l-39.5,56.2l44.4,63.9h-37.6l-25.1-37.9l-25.1,37.9h-36.9l43.2-63.2
	L621.1,111.6z"/>
<path class="st1" d="M782.4,331.1V9.7h-23.1V2h32v336.8h-32v-7.7L782.4,331.1L782.4,331.1z"/>
</svg>
